<?xml version="1.0" ?><svg data-name="004_ROMANTIC" height="24" id="_004_ROMANTIC" viewBox="0 0 24 24" width="24" xmlns="http://www.w3.org/2000/svg"><title/><path d="M12,21.4297c-2.4873,0-9.2168-3.3477-10.3462-11.2544a8.508,8.508,0,0,1-.0859-1.2012c0-3.8384,2.7036-6.8447,6.1552-6.8447A7.59731,7.59731,0,0,1,12,3.5903a7.59675,7.59675,0,0,1,4.2773-1.4604c3.4517,0,6.1553,3.0063,6.1553,6.8447a8.46848,8.46848,0,0,1-.0864,1.2002,13.76888,13.76888,0,0,1-2.5132,6.25,1.00007,1.00007,0,1,1-1.6152-1.1797,11.79561,11.79561,0,0,0,2.1489-5.353,6.57117,6.57117,0,0,0,.0659-.9175c0-2.7617-1.7866-4.8447-4.1553-4.8447a5.99275,5.99275,0,0,0-3.6528,1.4863.99991.99991,0,0,1-1.249,0A5.99223,5.99223,0,0,0,7.7231,4.1294c-2.3686,0-4.1552,2.083-4.1552,4.8447a6.538,6.538,0,0,0,.0654.9185c.9526,6.6675,6.6782,9.5371,8.3667,9.5371a7.549,7.549,0,0,0,3.6152-1.5908A.9998.9998,0,1,1,16.79,19.457,9.38092,9.38092,0,0,1,12,21.4297Z" style="fill:#333"/><path d="M8,11a1.00411,1.00411,0,0,1-.71-1.71.99884.99884,0,0,1,1.0899-.2104A1.15657,1.15657,0,0,1,8.71,9.29,1.05284,1.05284,0,0,1,9,10a1.39291,1.39291,0,0,1-.02.1997.65331.65331,0,0,1-.0601.1802.55393.55393,0,0,1-.0903.1699c-.0396.0601-.0796.1099-.1196.1602a1.16578,1.16578,0,0,1-.3301.2099A.99959.99959,0,0,1,8,11Z" style="fill:#333"/><path d="M16,11a1.00411,1.00411,0,0,1-.71-1.71,1.00411,1.00411,0,0,1,1.42,1.42A1.0538,1.0538,0,0,1,16,11Z" style="fill:#333"/><path d="M14.5,12a2.5,2.5,0,0,1-5,0Z" style="fill:#333"/></svg>